<svg width="241" height="148" viewBox="0 0 241 148" fill="none" xmlns="http://www.w3.org/2000/svg">
<path d="M0 57.9326H6.38526L26.5765 89.7127H26.6628V57.9326H33.3932V102.702H27.0079L6.90299 70.9218H6.73041V102.702H0V57.9326Z" fill="#010101"/>
<path d="M73.6933 90.2316C73.003 93.9552 71.0184 97.3324 68.0846 99.8436C65.2371 102.095 61.613 103.221 57.989 103.134C54.8826 103.134 51.7763 102.268 49.1877 100.536C47.0305 99.1508 45.2184 97.3324 44.0104 95.0809C43.6653 94.3882 43.4064 93.782 43.1475 93.1758C42.8887 92.3965 42.6298 91.6171 42.5435 90.7512C42.1121 87.2874 42.0258 83.8237 42.1121 80.3599C42.0258 76.8961 42.1984 73.3458 42.5435 69.882C42.8024 68.4099 43.3201 66.9378 44.0104 65.6389C46.8579 60.6164 52.2077 57.499 57.989 57.5856C61.8719 57.499 65.5823 58.7979 68.516 61.3958C71.1909 63.907 73.003 67.1976 73.6933 70.8345H66.5314C66.0137 69.016 64.9782 67.4573 63.5114 66.245C61.9582 65.0327 59.9736 64.34 57.989 64.34C56.6084 64.34 55.1415 64.6863 53.8472 65.2925C52.7254 65.8121 51.7763 66.5914 50.9997 67.6305C50.0505 68.6697 49.4465 69.9686 49.2739 71.3541C48.8425 74.2983 48.6699 77.3291 48.7562 80.3599C48.6699 83.3041 48.8425 86.3349 49.2739 89.2791C49.4465 90.6646 50.0505 91.9635 50.9997 93.0892C52.7254 95.1675 55.2278 96.2932 57.9027 96.3798C61.6993 96.3798 64.5468 94.3016 66.4451 90.2316H73.6933Z" fill="#010101"/>
<path d="M79.2969 57.9317H96.7269C100.006 57.7585 103.198 58.7976 105.787 60.8759C108.635 63.214 110.274 66.6777 110.188 70.4013C110.447 76.0299 106.909 81.0524 101.559 82.7842L111.913 102.614H103.889L94.656 83.477H86.0273V102.614H79.2969V57.9317ZM86.0273 77.5886H96.2092C98.3664 77.6752 100.437 76.8958 101.904 75.3371C103.112 74.0382 103.802 72.2198 103.802 70.4013C103.975 68.4096 103.112 66.5911 101.559 65.3788C100.092 64.3397 98.3664 63.9067 96.6406 63.9933H86.0273V77.5886Z" fill="#010101"/>
<path d="M118.297 57.9326H125.027V102.702H118.297V57.9326Z" fill="#010101"/>
<path d="M148.503 96.2943C154.284 96.2077 157.218 94.1294 157.304 90.0595C157.304 86.6823 155.406 84.6906 151.523 84.0845C149.711 83.8247 147.726 83.5649 145.655 83.2185C142.376 82.8721 139.27 81.3134 136.94 78.9754C134.869 76.724 133.747 73.7797 133.834 70.6624C133.661 67.112 135.128 63.6482 137.717 61.2236C140.65 58.7123 144.533 57.4134 148.416 57.5866C153.593 57.5866 158.684 59.2319 162.912 62.2627L159.116 67.8047C155.837 65.6399 152.04 64.4276 148.071 64.341C146.173 64.2544 144.361 64.8605 142.894 65.8997C141.427 67.0254 140.564 68.8439 140.65 70.7489C140.65 72.0479 141.168 73.3468 142.117 74.2127C143.412 75.425 145.137 76.2044 146.949 76.4642C148.157 76.6374 149.883 76.8971 151.954 77.1569C155.492 77.4167 158.857 79.062 161.187 81.6598C163.171 83.9979 164.207 86.9421 164.121 89.9729C163.862 98.5457 158.684 102.875 148.503 102.962C142.29 103.135 136.163 100.884 131.504 96.8138L135.905 91.7048C139.442 94.8222 143.929 96.3808 148.503 96.2943Z" fill="#010101"/>
<path d="M10.2669 126.341L2.84614 115.084V126.341H1.29297V112.313H2.67357L10.0943 123.57V112.313H11.5612V126.341H10.2669Z" fill="#010101"/>
<path d="M21.229 126.341V125.389C20.5387 126.168 19.5033 126.514 18.4678 126.428C17.4324 126.514 16.4832 126.255 15.7067 125.562C15.1889 125.042 14.9301 124.349 15.0164 123.57C15.0164 121.838 16.2244 120.799 18.3816 120.799H21.3153V119.846C21.3153 118.461 20.625 117.681 18.813 117.681C17.8638 117.595 16.9147 117.941 16.3969 118.807L15.4478 117.941C16.2244 116.902 17.5187 116.382 18.8993 116.469C21.4879 116.469 22.7822 117.595 22.7822 119.673V126.255L21.229 126.341ZM21.229 121.838H18.5541C17.0872 121.838 16.3969 122.444 16.3969 123.57C16.3969 124.696 17.0872 125.215 18.6404 125.215C19.417 125.302 20.1936 125.042 20.7976 124.523C21.1428 124.09 21.4016 123.483 21.3153 122.877L21.229 121.838Z" fill="#010101"/>
<path d="M29.0775 126.341C27.7832 126.428 26.6615 125.389 26.5752 124.09C26.5752 124.003 26.5752 123.83 26.5752 123.743V117.768H25.3672V116.643H26.5752V113.612H27.9558V116.643H30.0267V117.768H27.9558V123.657C27.9558 124.523 28.3872 125.042 29.2501 125.042H30.0267V126.255L29.0775 126.341Z" fill="#010101"/>
<path d="M33.0508 113.785V112.227H34.604V113.785H33.0508ZM33.1371 126.341V116.643H34.5177V126.341H33.1371Z" fill="#010101"/>
<path d="M44.6091 125.303C43.056 126.775 40.6399 126.775 39.0868 125.303C37.5336 122.965 37.5336 119.934 39.0868 117.595C40.6399 116.123 43.056 116.123 44.6091 117.595C46.2486 119.934 46.2486 122.965 44.6091 125.303ZM43.66 118.461C43.2285 118.028 42.5382 117.769 41.8479 117.769C41.1576 117.769 40.5536 118.028 40.1222 118.461C39.0868 120.367 39.0868 122.618 40.1222 124.437C40.5536 124.87 41.2439 125.13 41.8479 125.13C42.5382 125.13 43.1423 124.87 43.66 124.437C44.6954 122.532 44.6954 120.28 43.66 118.461Z" fill="#010101"/>
<path d="M55.3103 126.341V120.366C55.4829 119.153 54.62 117.941 53.412 117.768C53.2394 117.768 53.0669 117.768 52.8943 117.768C51.6 117.681 50.5645 118.634 50.4783 119.933C50.4783 120.106 50.4783 120.193 50.4783 120.366V126.341H49.0977V116.642H50.4783V117.681C51.1686 116.902 52.1177 116.469 53.1532 116.469C54.1023 116.382 54.9652 116.729 55.6555 117.335C56.3458 118.028 56.6909 119.067 56.6909 120.019V126.255L55.3103 126.341Z" fill="#010101"/>
<path d="M65.9204 126.341V125.389C65.2301 126.168 64.1947 126.514 63.1592 126.428C62.1238 126.514 61.1746 126.255 60.3981 125.562C59.8803 125.042 59.6215 124.349 59.7078 123.57C59.7078 121.838 60.9158 120.799 63.073 120.799H66.0067V119.846C66.0067 118.461 65.3164 117.681 63.5044 117.681C62.5552 117.595 61.6061 117.941 61.0884 118.807L60.1392 117.941C60.9158 116.902 62.2101 116.382 63.5907 116.469C66.1793 116.469 67.4736 117.595 67.4736 119.673V126.255L65.9204 126.341ZM65.9204 121.838H63.2455C61.7787 121.838 61.0884 122.444 61.0884 123.57C61.0884 124.696 61.7787 125.215 63.3318 125.215C64.1084 125.302 64.885 125.042 65.489 124.523C65.8342 124.09 66.093 123.483 66.0067 122.877L65.9204 121.838Z" fill="#010101"/>
<path d="M73.518 126.341C72.2236 126.428 71.1019 125.475 71.0156 124.177C71.0156 124.003 71.0156 123.917 71.0156 123.744V112.227H72.4825V123.657C72.4825 124.61 72.8277 125.043 73.7768 125.043H74.5534V126.255H73.518V126.341Z" fill="#010101"/>
<path d="M90.6888 126.341L87.4961 120.106H84.1309V126.341H82.6641V112.313H88.0139C90.0848 112.139 91.9831 113.612 92.1557 115.776C92.1557 115.95 92.1557 116.123 92.1557 116.296C92.2419 118.114 90.9476 119.76 89.1356 120.106L92.5008 126.514H90.6888V126.341ZM87.9276 113.612H84.2172V118.807H87.9276C89.3082 118.894 90.6025 117.855 90.6888 116.469C90.7751 115.084 89.7396 113.785 88.359 113.698C88.1864 113.525 88.0139 113.525 87.9276 113.612Z" fill="#010101"/>
<path d="M96.4669 121.839C96.4669 124.004 97.5023 125.216 99.3144 125.216C100.264 125.216 101.213 124.87 101.817 124.09L102.766 124.956C101.903 125.996 100.609 126.515 99.2281 126.429C96.6395 126.429 95 124.87 95 121.492C95 118.375 96.5532 116.556 98.9692 116.556C101.472 116.556 102.938 118.375 102.938 121.233V121.925L96.4669 121.839ZM101.299 119.154C100.695 117.942 99.2281 117.336 98.0201 117.942C97.5023 118.202 97.0709 118.635 96.812 119.154C96.6395 119.674 96.4669 120.193 96.5532 120.8H101.644C101.558 120.193 101.472 119.674 101.299 119.154Z" fill="#010101"/>
<path d="M109.325 126.428C107.858 126.515 106.391 125.995 105.355 125.042L106.305 124.09C107.081 124.869 108.203 125.302 109.325 125.216C110.878 125.216 111.913 124.609 111.913 123.484C111.913 122.618 111.396 122.185 110.274 122.098L108.721 121.925C106.822 121.752 105.787 120.886 105.787 119.327C105.787 117.508 107.254 116.469 109.325 116.469C110.533 116.382 111.827 116.815 112.776 117.508L111.827 118.461C111.05 117.941 110.188 117.681 109.238 117.681C107.858 117.681 107.081 118.288 107.081 119.24C107.081 120.106 107.513 120.539 108.807 120.626L110.36 120.799C112.086 120.972 113.208 121.578 113.208 123.397C113.294 125.302 111.654 126.428 109.325 126.428Z" fill="#010101"/>
<path d="M117.178 121.839C117.178 124.004 118.213 125.216 120.025 125.216C120.974 125.216 121.924 124.87 122.528 124.09L123.477 124.956C122.614 125.996 121.32 126.515 119.939 126.429C117.35 126.429 115.711 124.87 115.711 121.492C115.711 118.375 117.264 116.556 119.68 116.556C122.182 116.556 123.649 118.375 123.649 121.233V121.925L117.178 121.839ZM122.01 119.154C121.406 117.942 119.939 117.336 118.731 117.942C118.213 118.202 117.782 118.635 117.523 119.154C117.35 119.674 117.178 120.193 117.264 120.8H122.355C122.355 120.193 122.269 119.674 122.01 119.154Z" fill="#010101"/>
<path d="M132.534 126.341V125.389C131.843 126.168 130.808 126.514 129.773 126.428C128.737 126.514 127.788 126.255 127.011 125.562C126.494 125.042 126.235 124.349 126.321 123.57C126.321 121.838 127.529 120.799 129.686 120.799H132.62V119.846C132.62 118.461 131.93 117.681 130.118 117.681C129.169 117.595 128.219 117.941 127.702 118.807L126.752 117.941C127.529 116.902 128.823 116.382 130.204 116.469C132.793 116.469 134.087 117.595 134.087 119.673V126.255L132.534 126.341ZM132.534 121.838H129.859C128.392 121.838 127.702 122.444 127.702 123.57C127.702 124.696 128.392 125.215 129.945 125.215C130.722 125.302 131.498 125.042 132.102 124.523C132.447 124.09 132.706 123.483 132.62 122.877L132.534 121.838Z" fill="#010101"/>
<path d="M143.065 118.46C142.633 117.941 142.029 117.681 141.425 117.768C140.131 117.768 139.095 118.893 139.095 120.192C139.095 120.279 139.095 120.366 139.095 120.366V126.341H137.715V116.642H139.095V117.854C139.699 116.988 140.735 116.555 141.77 116.555C142.633 116.469 143.496 116.815 144.1 117.421L143.065 118.46Z" fill="#010101"/>
<path d="M149.361 126.428C146.945 126.428 145.047 124.782 145.047 121.491C145.047 118.201 146.859 116.555 149.361 116.555C150.569 116.469 151.777 116.988 152.554 118.027L151.605 118.893C151.087 118.201 150.224 117.768 149.361 117.768C148.498 117.768 147.635 118.114 147.118 118.893C146.255 120.539 146.255 122.444 147.118 124.089C147.635 124.782 148.498 125.215 149.361 125.215C150.224 125.215 151.087 124.782 151.605 124.089L152.554 125.042C151.777 125.908 150.569 126.514 149.361 126.428Z" fill="#010101"/>
<path d="M161.701 126.341V120.366C161.874 119.153 161.011 118.028 159.803 117.854C159.63 117.854 159.458 117.854 159.285 117.854C157.991 117.768 156.955 118.72 156.869 120.019C156.869 120.192 156.869 120.279 156.869 120.452V126.427H155.488V112.399H156.869V117.854C157.559 117.075 158.508 116.642 159.544 116.642C161.356 116.555 162.909 117.854 162.995 119.673C162.995 119.846 162.995 120.019 162.995 120.192V126.427H161.701V126.341Z" fill="#010101"/>
<path d="M1.29297 147.816V133.788H2.75985V147.816H1.29297Z" fill="#010101"/>
<path d="M13.0287 147.817V141.841C13.2013 140.629 12.3384 139.417 11.1304 139.243C10.9578 139.243 10.7853 139.243 10.6127 139.243C9.31839 139.157 8.28294 140.109 8.19665 141.408C8.19665 141.582 8.19665 141.668 8.19665 141.841V147.817H6.90234V138.118H8.28294V139.157C8.97324 138.377 9.9224 137.944 10.9578 137.944C11.907 137.858 12.7699 138.204 13.4602 138.81C14.1505 139.503 14.4956 140.542 14.4956 141.495V147.73H13.0287V147.817Z" fill="#010101"/>
<path d="M19.9327 139.243V147.816H18.5521V139.243H17.2578V138.117H18.4658V136.299C18.2933 135 19.2424 133.874 20.5367 133.701C20.623 133.701 20.7956 133.701 20.8819 133.701H21.9173V134.913H21.1407C20.1916 134.913 19.8464 135.433 19.8464 136.299V138.117H21.9173V139.243H19.9327Z" fill="#010101"/>
<path d="M30.1154 140.023C29.684 139.504 29.08 139.244 28.476 139.331C27.1817 139.331 26.1462 140.456 26.1462 141.755C26.1462 141.842 26.1462 141.929 26.1462 141.929V147.904H24.7656V138.205H26.1462V139.417C26.7502 138.551 27.7857 138.118 28.8211 138.118C29.684 138.032 30.5469 138.378 31.1509 138.984L30.1154 140.023Z" fill="#010101"/>
<path d="M38.4869 147.816V146.863C37.7966 147.643 36.7611 147.989 35.7257 147.902C34.6902 147.989 33.741 147.729 32.9645 147.036C32.4467 146.517 32.1879 145.824 32.2742 145.045C32.2742 143.313 33.4822 142.273 35.6394 142.273H38.5731V141.321C38.5731 139.935 37.8828 139.156 36.0708 139.156C35.1216 139.069 34.1725 139.416 33.6548 140.282L32.7056 139.416C33.4822 138.376 34.7765 137.857 36.1571 137.943C38.7457 137.943 40.04 139.069 40.04 141.148V147.729H38.4869V147.816ZM38.4869 143.399H35.8119C34.3451 143.399 33.6548 144.005 33.6548 145.131C33.6548 146.257 34.3451 146.777 35.8982 146.777C36.6748 146.863 37.4514 146.603 38.0554 146.084C38.4006 145.651 38.6594 145.045 38.5731 144.438L38.4869 143.399Z" fill="#010101"/>
<path d="M46.6841 147.99C45.2172 148.077 43.7503 147.557 42.7148 146.605L43.664 145.652C44.4406 146.432 45.5623 146.865 46.6841 146.778C48.2372 146.778 49.2727 146.172 49.2727 145.046C49.2727 144.18 48.755 143.747 47.6332 143.66L46.0801 143.487C44.1817 143.314 43.1463 142.448 43.1463 140.889C43.1463 139.071 44.6132 138.031 46.6841 138.031C47.8921 137.945 49.1864 138.378 50.1356 139.071L49.1864 140.023C48.4098 139.504 47.5469 139.244 46.5978 139.244C45.2172 139.244 44.4406 139.85 44.4406 140.803C44.4406 141.669 44.872 142.102 46.1663 142.188L47.7195 142.361C49.4453 142.535 50.567 143.141 50.567 144.959C50.6533 146.865 49.0138 147.99 46.6841 147.99Z" fill="#010101"/>
<path d="M56.1713 147.816C54.877 147.903 53.7552 146.864 53.669 145.565C53.669 145.478 53.669 145.305 53.669 145.218V139.243H52.4609V138.118H53.669V135.087H55.0496V138.118H57.1205V139.243H55.0496V145.132C55.0496 145.998 55.481 146.517 56.3439 146.517H57.1205V147.73L56.1713 147.816Z" fill="#010101"/>
<path d="M65.7522 140.023C65.3207 139.504 64.7167 139.244 64.1127 139.331C62.8184 139.331 61.7829 140.456 61.7829 141.755C61.7829 141.842 61.7829 141.929 61.7829 141.929V147.904H60.4023V138.205H61.7829V139.417C62.387 138.551 63.4224 138.118 64.4578 138.118C65.3207 138.032 66.1836 138.378 66.7876 138.984L65.7522 140.023Z" fill="#010101"/>
<path d="M74.9874 147.817V146.691C74.2971 147.471 73.2617 147.904 72.2262 147.904C71.2771 147.99 70.4142 147.644 69.7239 146.951C69.0336 146.258 68.6885 145.219 68.7747 144.266V138.031H70.1554V144.007C70.1554 145.739 71.1045 146.605 72.4851 146.605C73.7794 146.691 74.8149 145.739 74.9012 144.44C74.9012 144.266 74.9012 144.18 74.9012 144.007V138.031H76.2818V147.73L74.9874 147.817Z" fill="#010101"/>
<path d="M83.9589 147.991C81.5429 147.991 79.6445 146.345 79.6445 143.054C79.6445 139.764 81.4566 138.118 83.9589 138.118C85.1669 138.032 86.3749 138.551 87.1515 139.59L86.2024 140.456C85.6846 139.764 84.8218 139.331 83.9589 139.331C83.096 139.331 82.2331 139.677 81.7154 140.456C80.8525 142.102 80.8525 144.007 81.7154 145.652C82.2331 146.345 83.096 146.778 83.9589 146.778C84.8218 146.778 85.6846 146.345 86.2024 145.652L87.1515 146.605C86.3749 147.471 85.1669 148.077 83.9589 147.991Z" fill="#010101"/>
<path d="M92.8432 147.816C91.5489 147.903 90.4271 146.864 90.3408 145.565C90.3408 145.478 90.3408 145.305 90.3408 145.218V139.243H89.1328V138.118H90.3408V135.087H91.7214V138.118H93.7923V139.243H91.7214V145.132C91.7214 145.998 92.1529 146.517 93.0157 146.517H93.7923V147.73L92.8432 147.816Z" fill="#010101"/>
<path d="M103.027 147.817V146.691C102.336 147.471 101.301 147.904 100.265 147.904C99.3161 147.99 98.4533 147.644 97.763 146.951C97.0727 146.258 96.7275 145.219 96.8138 144.266V138.031H98.1944V144.007C98.1944 145.739 99.1436 146.605 100.524 146.605C101.818 146.691 102.854 145.739 102.94 144.44C102.94 144.266 102.94 144.18 102.94 144.007V138.031H104.321V147.73L103.027 147.817Z" fill="#010101"/>
<path d="M113.733 140.023C113.301 139.504 112.697 139.244 112.093 139.331C110.799 139.331 109.763 140.456 109.763 141.755C109.763 141.842 109.763 141.929 109.763 141.929V147.904H108.383V138.205H109.763V139.417C110.367 138.551 111.403 138.118 112.438 138.118C113.301 138.032 114.164 138.378 114.768 138.984L113.733 140.023Z" fill="#010101"/>
<path d="M117.092 143.4C117.092 145.565 118.127 146.778 119.939 146.778C120.889 146.778 121.838 146.431 122.442 145.652L123.391 146.518C122.528 147.557 121.234 148.077 119.853 147.99C117.264 147.99 115.625 146.431 115.625 143.054C115.625 139.936 117.178 138.118 119.594 138.118C122.097 138.118 123.563 139.936 123.563 142.794V143.487L117.092 143.4ZM121.924 140.716C121.32 139.503 119.853 138.897 118.645 139.503C118.127 139.763 117.696 140.196 117.437 140.716C117.264 141.235 117.092 141.755 117.178 142.361H122.269C122.183 141.755 122.097 141.235 121.924 140.716Z" fill="#010101"/>
<path d="M133.831 139.243V147.816H132.451V139.243H131.156V138.117H132.364V136.299C132.192 135 133.141 133.874 134.435 133.701C134.521 133.701 134.694 133.701 134.78 133.701H135.816V134.913H135.039C134.09 134.913 133.745 135.433 133.745 136.299V138.117H135.816V139.243H133.831Z" fill="#010101"/>
<path d="M144.359 146.864C142.806 148.336 140.39 148.336 138.837 146.864C137.284 144.526 137.284 141.495 138.837 139.156C140.39 137.684 142.806 137.684 144.359 139.156C145.912 141.495 145.912 144.526 144.359 146.864ZM143.324 140.022C142.892 139.589 142.202 139.33 141.512 139.33C140.821 139.33 140.217 139.589 139.786 140.022C138.75 141.928 138.75 144.179 139.786 145.998C140.217 146.431 140.908 146.691 141.512 146.691C142.202 146.691 142.806 146.431 143.324 145.998C144.359 144.093 144.359 141.841 143.324 140.022Z" fill="#010101"/>
<path d="M154.279 140.023C153.848 139.504 153.244 139.244 152.64 139.331C151.346 139.331 150.31 140.456 150.31 141.755C150.31 141.842 150.31 141.929 150.31 141.929V147.904H148.93V138.205H150.31V139.417C150.914 138.551 151.95 138.118 152.985 138.118C153.848 138.032 154.711 138.378 155.315 138.984L154.279 140.023Z" fill="#010101"/>
<path d="M171.017 147.816L169.895 144.612H163.769L162.647 147.816H161.094L166.271 133.788H167.565L172.743 147.816H171.017ZM166.875 135.953L164.2 143.4H169.464L166.875 135.953Z" fill="#010101"/>
<path d="M181.034 147.817V146.691C180.344 147.471 179.309 147.904 178.273 147.904C177.324 147.99 176.461 147.644 175.771 146.951C175.08 146.258 174.735 145.219 174.822 144.266V138.031H176.202V144.007C176.202 145.739 177.065 146.605 178.532 146.605C179.826 146.691 180.862 145.739 180.948 144.44C180.948 144.266 180.948 144.18 180.948 144.007V138.031H182.329V147.73L181.034 147.817Z" fill="#010101"/>
<path d="M189.313 147.99C187.846 148.077 186.379 147.557 185.344 146.605L186.293 145.652C187.069 146.432 188.191 146.865 189.313 146.778C190.866 146.778 191.902 146.172 191.902 145.046C191.902 144.18 191.384 143.747 190.262 143.66L188.709 143.487C186.811 143.314 185.775 142.448 185.775 140.889C185.775 139.071 187.242 138.031 189.313 138.031C190.521 137.945 191.815 138.378 192.764 139.071L191.815 140.023C191.039 139.504 190.176 139.244 189.227 139.244C187.846 139.244 187.069 139.85 187.069 140.803C187.069 141.669 187.501 142.102 188.795 142.188L190.348 142.361C192.074 142.535 193.196 143.141 193.196 144.959C193.196 146.865 191.643 147.99 189.313 147.99Z" fill="#010101"/>
<path d="M198.808 147.816C197.514 147.903 196.392 146.864 196.306 145.565C196.306 145.478 196.306 145.305 196.306 145.218V139.243H195.098V138.118H196.306V135.087H197.686V138.118H199.757V139.243H197.686V145.132C197.686 145.998 198.118 146.517 198.981 146.517H199.757V147.73L198.808 147.816Z" fill="#010101"/>
<path d="M208.299 140.023C207.868 139.504 207.264 139.244 206.66 139.331C205.365 139.331 204.33 140.456 204.33 141.755C204.33 141.842 204.33 141.929 204.33 141.929V147.904H202.949V138.205H204.33V139.417C204.934 138.551 205.969 138.118 207.005 138.118C207.868 138.032 208.73 138.378 209.335 138.984L208.299 140.023Z" fill="#010101"/>
<path d="M216.752 147.816V146.863C216.062 147.643 215.027 147.989 213.991 147.902C212.956 147.989 212.007 147.729 211.23 147.036C210.712 146.517 210.454 145.824 210.54 145.045C210.54 143.313 211.748 142.273 213.905 142.273H216.839V141.321C216.839 139.935 216.148 139.156 214.336 139.156C213.387 139.069 212.438 139.416 211.92 140.282L210.971 139.416C211.748 138.376 213.042 137.857 214.423 137.943C217.011 137.943 218.306 139.069 218.306 141.148V147.729H216.752V147.816ZM216.752 143.399H213.991C212.524 143.399 211.834 144.005 211.834 145.131C211.834 146.257 212.524 146.777 214.078 146.777C214.854 146.863 215.631 146.603 216.235 146.084C216.58 145.651 216.752 145.045 216.752 144.438V143.399Z" fill="#010101"/>
<path d="M224.35 147.816C223.056 147.903 221.934 146.95 221.848 145.651C221.848 145.478 221.848 145.391 221.848 145.218V133.701H223.228V145.132C223.228 146.084 223.573 146.517 224.523 146.517H225.299V147.729L224.35 147.816Z" fill="#010101"/>
<path d="M227.883 135.347V133.788H229.436V135.347H227.883ZM227.969 147.816V138.118H229.35V147.816H227.969Z" fill="#010101"/>
<path d="M238.756 147.816V146.863C238.066 147.643 237.031 147.989 235.995 147.902C234.96 147.989 234.011 147.729 233.234 147.036C232.716 146.517 232.457 145.824 232.544 145.045C232.544 143.313 233.752 142.273 235.909 142.273H238.843V141.321C238.843 139.935 238.152 139.156 236.34 139.156C235.391 139.069 234.442 139.416 233.924 140.282L232.975 139.416C233.752 138.376 235.046 137.857 236.427 137.943C239.015 137.943 240.31 139.069 240.31 141.148V147.729H238.756V147.816ZM238.756 143.399H236.081C234.615 143.399 233.924 144.005 233.924 145.131C233.924 146.257 234.615 146.777 236.168 146.777C236.944 146.863 237.721 146.603 238.325 146.084C238.67 145.651 238.929 145.045 238.843 144.438L238.756 143.399Z" fill="#010101"/>
<path d="M184.656 22.8611V55.8535L211.578 43.4706V10.9111L184.656 22.8611Z" fill="#0E3E64"/>
<path d="M213.473 70.1424V103.135L240.998 90.4921V57.9326L213.473 70.1424Z" fill="#0E3E64"/>
<path d="M211.23 69.8826V102.875L184.309 90.4921V57.9326L211.23 69.8826Z" fill="#F5A61C"/>
<path d="M182.844 23.0345V56.0269L155.922 43.5573V11.0845L182.844 23.0345Z" fill="#F5A61C"/>
<path d="M157.562 10.0449L183.88 21.3888L210.198 9.52536L184.053 0L157.562 10.0449Z" fill="#F5A61C"/>
<path d="M186.293 56.8919L212.265 68.2357L239.791 56.2857L212.869 44.9419L186.293 56.8919Z" fill="white"/>
</svg>
